<?xml version="1.0" standalone="no"?>
<svg viewBox="0 0 200 200" xmlns="http://www.w3.org/2000/svg">
  <path fill="#D0E2FF" d="M46.4,-63.8C57.6,-55.8,62.4,-38.8,66.6,-22.5C70.8,-6.1,74.3,9.6,70,22.6C65.6,35.7,53.3,46.1,40.3,57.9C27.4,69.7,13.7,82.8,-1.4,84.8C-16.6,86.8,-33.1,77.6,-43.8,65C-54.5,52.5,-59.3,36.7,-66.7,20.2C-74.2,3.6,-84.3,-13.5,-82.6,-29.3C-80.9,-45.1,-67.3,-59.6,-51.6,-66.1C-35.8,-72.6,-17.9,-71.3,-0.2,-71.1C17.6,-70.9,35.2,-71.8,46.4,-63.8Z" transform="translate(100 100)" />
</svg>
